 <svg  version="1.0" xmlns="http://www.w3.org/2000/svg"  width="109.000000pt" height="137.000000pt" viewBox="0 0 109.000000 137.000000"  preserveAspectRatio="xMidYMid meet">  <g transform="translate(0.000000,137.000000) scale(0.100000,-0.100000)" fill="#ffffff" stroke="none"> <path d="M416 1049 c-102 -35 -182 -96 -237 -182 -22 -33 -39 -64 -39 -69 0 -4 72 -8 160 -8 l160 0 0 25 0 25 -120 0 c-66 0 -120 4 -120 8 0 14 83 89 134 121 71 44 181 66 262 53 135 -22 247 -102 300 -212 22 -45 34 -60 50 -60 33 0 33 8 4 68 -54 111 -145 191 -267 233 -77 26 -207 25 -287 -2z"/> <path d="M530 848 c0 -2 -1 -97 -3 -211 l-2 -208 125 3 c117 3 125 4 125 23 0 18 -8 20 -98 25 l-99 5 2 183 1 182 -26 0 c-14 0 -25 -1 -25 -2z"/> <path d="M120 635 l0 -25 170 0 170 0 0 25 0 25 -170 0 -170 0 0 -25z"/> <path d="M770 635 c0 -25 0 -25 95 -25 52 0 95 -2 95 -5 0 -19 -48 -128 -72 -163 -90 -131 -283 -193 -446 -143 -67 20 -190 99 -199 126 -2 7 35 9 107 7 l110 -4 0 26 0 26 -155 0 c-127 0 -154 -2 -148 -13 49 -81 139 -163 214 -195 104 -45 207 -52 310 -24 180 50 299 183 324 360 l7 52 -121 0 -121 0 0 -25z"/> </g> </svg> 